<?xml version="1.0" standalone="no"?>
<!DOCTYPE svg PUBLIC "-//W3C//DTD SVG 20010904//EN"
 "http://www.w3.org/TR/2001/REC-SVG-20010904/DTD/svg10.dtd">
<svg version="1.0" xmlns="http://www.w3.org/2000/svg"
 width="1254.000000pt" height="1254.000000pt" viewBox="0 0 1254.000000 1254.000000"
 preserveAspectRatio="xMidYMid meet">
<metadata>
Created by potrace 1.16, written by Peter Selinger 2001-2019
</metadata>
<g transform="translate(0.000000,1254.000000) scale(0.100000,-0.100000)"
fill="#15171a" stroke="none">
<path d="M9235 10400 c-60 -4 -171 -15 -245 -25 -74 -9 -173 -21 -220 -25 -47
-5 -139 -16 -205 -25 -124 -16 -210 -27 -378 -44 -54 -6 -102 -13 -107 -16 -7
-4 -47 -9 -260 -30 -53 -6 -249 -32 -336 -46 -34 -5 -81 -9 -105 -9 -24 0 -60
-4 -79 -10 -32 -8 -71 -13 -300 -40 -41 -5 -95 -13 -120 -18 -25 -5 -92 -15
-150 -21 -58 -6 -125 -16 -150 -21 -25 -5 -70 -12 -100 -15 -30 -3 -62 -8 -72
-11 -9 -3 -51 -9 -95 -15 -107 -14 -173 -25 -278 -43 -49 -9 -119 -21 -155
-25 -36 -5 -81 -14 -100 -20 -19 -6 -45 -11 -58 -11 -75 0 -191 -94 -217 -175
-19 -63 -17 -62 -154 -53 -58 5 -196 3 -306 -2 -213 -11 -226 -12 -405 -36
-63 -8 -160 -19 -215 -23 -55 -5 -125 -14 -155 -20 -30 -5 -100 -15 -155 -21
-55 -6 -127 -15 -160 -20 -33 -5 -105 -17 -160 -25 -161 -25 -227 -36 -275
-47 -25 -5 -67 -13 -95 -18 -59 -10 -103 -23 -136 -40 -29 -15 -119 -101 -119
-113 0 -5 -7 -24 -16 -42 l-15 -33 -202 -6 c-273 -10 -336 -14 -377 -26 -19
-5 -57 -10 -84 -10 -53 0 -174 -13 -291 -32 -38 -6 -106 -15 -150 -19 -44 -5
-121 -12 -172 -18 -50 -5 -97 -12 -103 -16 -6 -4 -51 -11 -98 -16 -161 -17
-229 -26 -238 -31 -5 -3 -26 -9 -47 -12 -95 -15 -197 -112 -197 -188 0 -7 -10
-29 -21 -48 -12 -19 -26 -48 -32 -65 -6 -19 -12 -548 -17 -1385 -5 -745 -12
-1802 -16 -2347 l-7 -993 23 -47 c12 -27 30 -64 39 -83 46 -99 142 -150 283
-150 46 0 119 -4 163 -9 44 -6 151 -13 237 -16 87 -3 184 -10 215 -15 32 -6
108 -10 168 -10 61 0 137 -5 170 -10 33 -6 223 -13 423 -15 l363 -5 42 -34
c60 -48 79 -56 134 -56 26 0 102 -7 168 -15 66 -7 167 -14 225 -14 58 0 137
-5 175 -10 39 -6 122 -11 185 -12 63 -1 148 -5 188 -10 41 -4 146 -11 235 -14
89 -3 189 -10 222 -15 33 -6 208 -13 388 -17 l328 -6 29 -31 c17 -16 30 -33
30 -37 0 -5 19 -21 43 -38 53 -36 145 -51 316 -51 64 0 142 -4 172 -9 30 -5
117 -12 194 -15 77 -4 210 -11 295 -16 398 -26 493 -31 605 -35 66 -3 163 -9
215 -15 52 -5 133 -10 180 -10 47 0 146 -4 220 -10 194 -14 478 -31 600 -36
58 -2 175 -8 260 -14 85 -5 232 -14 326 -20 95 -6 183 -13 195 -16 29 -6 702
-5 744 1 43 6 237 23 410 35 83 6 202 15 265 21 130 12 309 24 545 39 88 5
171 12 185 15 14 3 46 7 72 9 52 4 123 41 159 84 13 15 41 38 61 50 74 46 93
76 234 381 l44 93 0 228 c0 224 0 227 -23 248 -13 12 -33 22 -44 22 -36 0 -53
11 -53 35 0 23 17 35 49 35 9 0 29 13 44 28 l27 28 0 194 c0 168 -2 196 -17
212 -16 18 -16 21 0 47 15 25 17 62 17 270 l0 242 -25 24 c-18 19 -35 25 -70
25 -37 0 -45 3 -45 18 0 36 -55 75 -114 80 -59 5 -66 13 -66 77 0 56 11 74 54
93 70 32 66 0 64 528 l-3 479 -55 28 c-65 33 -80 55 -79 122 1 79 10 96 56
114 90 35 83 -8 83 527 l0 473 -26 20 c-14 11 -40 25 -59 31 -36 12 -42 24
-51 118 -7 65 13 102 55 102 11 0 33 12 50 26 l31 26 0 168 c0 188 1 186 -85
299 -82 109 -83 121 -11 146 21 7 51 26 67 41 l29 28 0 455 c0 422 -2 459 -19
497 -35 77 -104 126 -196 138 -27 3 -86 13 -130 22 -44 8 -107 19 -140 24
-145 20 -206 30 -246 39 -24 5 -78 14 -119 20 -41 7 -100 16 -130 22 -30 6
-84 15 -120 20 -36 5 -90 13 -120 18 -30 5 -93 14 -139 20 -47 7 -89 15 -94
18 -6 3 -42 10 -81 14 -160 18 -222 28 -250 39 -36 13 -491 21 -641 10z m524
-86 c15 -5 10 -6948 -5 -6963 -10 -10 -213 -19 -312 -13 l-92 5 29 18 c30 18
65 66 89 122 16 38 18 6188 1 6353 -13 131 -36 187 -111 266 -107 113 -334
154 -633 114 -200 -27 -280 -36 -331 -36 -27 0 -67 -5 -89 -10 -22 -6 -83 -15
-135 -20 -177 -19 -255 -28 -318 -40 -35 -6 -67 -8 -72 -5 -5 3 -29 1 -52 -6
-24 -6 -83 -15 -133 -20 -189 -19 -261 -29 -300 -38 -22 -6 -60 -11 -85 -11
-25 0 -61 -5 -81 -10 -20 -6 -60 -12 -90 -15 -48 -4 -151 -18 -309 -44 -30 -5
-58 -7 -62 -4 -4 2 -25 -1 -45 -7 -21 -6 -76 -16 -123 -21 -47 -6 -110 -15
-140 -19 -30 -5 -86 -13 -125 -18 -38 -6 -92 -15 -120 -21 -27 -5 -84 -15
-125 -21 -41 -6 -96 -16 -122 -21 -26 -6 -73 -15 -105 -20 -32 -5 -76 -12 -97
-15 -29 -5 -37 -4 -32 5 11 17 73 41 136 53 226 41 271 49 411 67 42 6 89 15
104 21 14 5 44 10 65 10 21 0 68 7 105 15 36 9 69 13 74 11 4 -3 25 0 46 5 21
6 71 15 109 19 215 26 248 30 256 35 5 3 51 10 102 16 228 26 375 45 459 59
30 6 78 10 106 10 27 0 63 4 79 10 28 9 130 22 316 40 47 4 91 11 96 14 6 3
48 8 94 11 45 3 99 9 118 15 19 5 62 10 95 10 33 0 76 4 95 9 19 6 55 12 80
14 188 20 274 29 332 38 37 5 87 9 112 9 24 0 57 5 73 11 54 22 602 32 662 13z
m156 -18 c57 -6 89 -11 230 -35 33 -6 85 -13 115 -17 30 -3 59 -9 64 -11 4 -3
38 -9 75 -14 36 -4 109 -15 161 -24 127 -22 180 -31 274 -44 44 -6 82 -14 85
-17 3 -3 8 -103 11 -223 l5 -217 119 -239 c129 -259 153 -298 194 -319 27 -14
130 -34 231 -45 69 -8 73 -21 17 -49 -60 -28 -95 -91 -75 -131 27 -52 79 -130
109 -163 40 -43 41 -49 38 -213 -3 -131 -4 -140 -23 -143 -77 -14 -118 -91
-113 -208 4 -106 35 -148 131 -178 16 -5 17 -35 17 -436 l0 -431 -43 -19 c-82
-37 -107 -80 -107 -190 0 -111 21 -153 96 -186 l54 -24 0 -424 c0 -445 -1
-456 -31 -456 -11 0 -36 -15 -57 -34 l-37 -34 0 -90 c0 -128 30 -171 122 -173
30 0 34 -2 18 -9 -11 -4 -31 -20 -45 -35 l-25 -27 -7 -931 c-7 -833 -9 -938
-24 -984 -26 -81 -26 -81 -228 -93 -98 -5 -181 -12 -186 -15 -36 -22 -35 -77
-34 2593 1 1423 2 2599 3 2614 1 21 14 36 59 67 222 157 256 186 233 201 -8 4
-24 5 -35 0 -50 -18 -246 -149 -299 -199 l-38 -36 2 -2608 c2 -1933 0 -2610
-9 -2619 -13 -13 -206 -37 -347 -42 -94 -3 -245 -14 -520 -36 -200 -17 -262
-14 -270 11 -4 12 -4 1300 1 2863 4 1562 10 2830 12 2816 6 -38 68 -116 107
-134 47 -23 211 -49 378 -62 33 -2 63 -7 68 -10 6 -3 47 -10 92 -14 165 -17
260 -31 277 -40 58 -31 138 13 176 97 16 37 19 327 5 549 -8 115 -12 136 -35
172 -44 70 -136 122 -217 122 -22 0 -59 4 -82 9 -23 5 -82 15 -132 21 -49 6
-112 16 -140 22 -60 13 -160 26 -276 34 -115 8 -156 -13 -208 -111 l-21 -40 0
321 c0 297 2 340 19 330 3 -2 33 -7 66 -10z m-707 -177 c141 -70 173 -145 187
-444 6 -141 -1 -179 -36 -183 -79 -12 -81 -26 -80 -511 2 -477 -2 -452 76
-495 l40 -23 0 -533 0 -533 -48 -27 c-32 -18 -57 -41 -73 -69 l-24 -43 0
-1592 0 -1592 23 -32 c12 -18 45 -45 72 -60 l50 -27 3 -212 c2 -208 2 -214
-22 -260 -43 -85 -85 -108 -220 -119 -76 -7 -78 -7 -68 13 6 11 23 28 37 37
28 18 75 111 96 191 17 62 17 6235 0 6295 -29 108 -37 129 -62 166 -15 22 -34
46 -43 53 -9 7 -13 17 -10 22 10 16 40 10 102 -22z m-195 -10 c38 -20 79 -72
109 -136 l28 -63 0 -3150 0 -3151 -25 -53 c-31 -65 -100 -146 -125 -146 -10 0
-22 -5 -25 -10 -3 -6 -14 -10 -23 -9 -14 0 -13 2 3 8 70 29 153 167 166 276
16 138 11 6079 -6 6179 -15 94 -41 150 -101 216 -45 50 -45 62 -1 39z m2130
-10 c44 -6 85 -13 90 -16 5 -3 39 -9 76 -14 168 -20 229 -46 252 -106 5 -15 8
-187 7 -416 l-3 -392 -40 2 c-51 2 -215 30 -246 42 -19 7 -54 67 -152 259
l-127 251 0 199 c0 210 1 216 38 207 13 -3 60 -10 105 -16z m-2274 -18 c93
-38 143 -101 170 -214 18 -78 16 -6159 -3 -6230 -41 -157 -130 -206 -336 -186
-47 4 -137 8 -200 9 -63 0 -167 5 -230 11 -63 5 -189 12 -280 15 -91 2 -192 9
-225 14 -33 5 -107 10 -164 10 -100 0 -255 8 -601 31 -91 6 -246 14 -345 19
-364 16 -621 31 -640 36 -11 3 -116 9 -233 14 -271 11 -309 26 -325 124 -7 45
11 3795 24 4855 9 784 14 970 25 997 23 54 49 66 199 93 28 5 68 14 89 20 22
5 43 8 47 5 4 -2 38 2 76 11 37 8 102 19 143 25 41 6 107 17 145 26 39 8 85
14 102 14 18 0 52 4 75 9 76 17 193 35 403 60 39 5 97 14 130 19 33 6 101 16
150 22 50 6 128 17 175 24 47 8 104 15 126 15 23 1 57 6 75 11 19 6 54 10 79
10 25 0 61 4 80 10 19 5 64 11 100 14 36 3 89 10 119 16 29 5 74 10 100 10 25
0 62 4 81 9 19 6 62 12 95 15 57 4 142 14 315 37 41 5 102 12 135 15 33 3 92
8 130 13 109 13 147 11 194 -8z m1267 -365 c130 -26 190 -36 226 -36 20 0 48
-4 61 -9 13 -5 54 -12 90 -15 36 -3 76 -10 89 -15 13 -4 52 -11 88 -15 99 -11
114 -24 107 -98 -10 -111 -1 -109 -357 -57 -36 5 -106 14 -156 19 -50 5 -103
14 -118 20 -15 5 -52 10 -81 10 -30 0 -73 7 -95 16 l-40 16 0 58 c0 50 4 62
29 89 33 36 54 38 157 17z m-4830 -106 c24 -10 26 -14 20 -48 -3 -20 -11
-1099 -16 -2397 -11 -2405 -21 -3446 -35 -3477 -11 -27 -53 -23 -60 5 -3 12
-7 1161 -10 2552 -3 1392 -7 2562 -10 2600 -2 39 -9 138 -14 220 -10 152 -23
210 -66 284 -93 160 -288 220 -574 176 -52 -8 -97 -12 -101 -10 -4 2 -22 0
-41 -5 -19 -5 -79 -14 -134 -20 -200 -23 -241 -28 -305 -39 -36 -7 -96 -16
-135 -22 -38 -5 -97 -15 -130 -21 -63 -12 -126 -22 -235 -37 -36 -5 -78 -14
-94 -20 -30 -12 -56 -9 -56 8 0 12 117 46 210 60 41 6 107 18 145 26 70 14
103 19 330 50 66 9 139 21 162 26 23 5 61 9 85 9 24 0 79 7 123 15 44 8 143
19 220 26 77 6 163 15 190 21 28 5 127 12 220 15 94 2 172 7 174 9 9 8 111 4
137 -6z m91 -247 c-1 -43 -3 -8 -3 77 0 85 2 120 3 78 2 -43 2 -113 0 -155z
m4688 66 c150 -18 226 -30 251 -39 14 -6 50 -10 80 -10 l54 0 0 -48 c0 -71
-13 -83 -90 -83 -36 0 -81 4 -100 10 -19 6 -58 11 -87 11 -28 0 -73 4 -100 10
-26 5 -74 12 -106 16 -75 7 -87 21 -87 96 l0 61 58 -8 c31 -4 89 -11 127 -16z
m-5218 -83 c7 -12 12 -31 13 -43 0 -12 5 -23 11 -25 6 -2 9 -14 7 -28 l-3 -23
-12 24 c-6 13 -14 36 -17 51 -3 14 -25 50 -48 80 l-42 53 40 -34 c21 -19 44
-44 51 -55z m120 48 c83 -68 116 -145 133 -312 12 -123 10 -132 -25 -132 -14
0 -35 -14 -54 -35 l-31 -36 0 -378 0 -379 29 -31 c16 -17 38 -31 48 -31 43 0
43 -4 43 -466 0 -420 -1 -443 -18 -448 -10 -4 -32 -20 -48 -37 l-29 -30 -3
-1701 -2 -1701 -93 8 c-118 9 -117 8 -58 66 59 60 80 101 91 181 5 34 12 1230
16 2659 7 2645 7 2667 -27 2731 -5 10 -9 23 -9 30 0 7 -9 24 -20 38 -41 53 -6
55 57 4z m5882 -418 c-5 -5 -25 8 -49 32 -36 36 -40 43 -30 63 7 12 14 81 16
157 3 132 4 136 31 164 l28 29 7 -218 c3 -120 2 -222 -3 -227z m-6170 406 c43
-22 59 -38 82 -81 l29 -54 0 -2645 c0 -2829 3 -2690 -52 -2756 -49 -60 -103
-71 -288 -58 -224 17 -479 32 -680 42 -511 26 -550 29 -590 51 -60 34 -64 62
-56 397 4 158 11 820 16 1472 6 652 14 1676 19 2275 9 1147 8 1136 52 1171 19
16 77 31 189 49 52 9 133 22 180 31 47 8 112 19 145 24 33 5 103 16 155 24 52
8 138 20 190 26 52 6 122 16 155 22 33 5 92 12 130 14 39 2 86 8 105 13 76 19
162 13 219 -17z m4695 12 c3 -9 6 -88 6 -176 0 -146 -1 -159 -17 -156 -29 5
-32 348 -4 348 5 0 12 -7 15 -16z m1299 -53 l27 -11 0 -114 c0 -137 -3 -142
-88 -132 -151 18 -245 27 -337 34 -56 5 -106 11 -112 15 -6 4 -66 12 -134 17
-130 11 -149 20 -149 63 0 18 5 19 53 14 112 -14 144 -18 196 -27 30 -6 78
-10 106 -10 28 0 78 -7 110 -15 73 -19 95 -15 140 30 32 33 35 40 35 97 l0 61
63 -6 c34 -3 74 -10 90 -16z m-5786 -2878 c-1 -499 -2 -93 -2 902 0 996 1
1404 2 908 2 -496 2 -1310 0 -1810z m-1891 2620 c-3 -42 -6 -160 -6 -263 0
-143 -3 -191 -14 -205 -30 -41 -42 -4 -50 139 -9 191 -48 268 -158 317 -71 31
-235 38 -380 15 -57 -8 -161 -20 -233 -27 -71 -6 -147 -15 -168 -20 -20 -6
-83 -15 -140 -20 -149 -16 -218 -25 -418 -60 -69 -11 -106 -12 -113 0 -9 13
15 28 54 34 195 31 256 39 321 46 42 4 80 10 85 14 6 3 44 8 85 12 41 3 92 10
114 15 22 5 67 10 100 10 33 0 75 4 94 10 19 5 109 17 200 25 91 9 189 20 216
24 28 5 133 9 234 10 l184 1 -7 -77z m7021 -18 c40 -2 94 -8 120 -13 27 -6
109 -16 183 -22 74 -6 164 -16 200 -22 36 -5 95 -12 131 -15 l66 -5 53 -60
c42 -47 50 -62 39 -69 -15 -9 -119 -3 -179 11 -19 4 -55 8 -80 9 -25 1 -61 5
-80 11 -19 5 -56 10 -82 10 -26 0 -79 7 -118 15 -40 8 -75 13 -79 11 -4 -3
-39 2 -77 10 -38 7 -85 14 -105 14 -30 0 -43 8 -78 45 -49 54 -56 91 -13 80
15 -4 60 -9 99 -10z m-7408 -144 c79 -80 75 -29 67 -1005 -4 -473 -11 -1522
-16 -2331 -5 -865 -12 -1487 -18 -1512 -11 -51 -52 -107 -92 -128 -34 -18 -81
-19 -250 -5 -69 6 -263 17 -433 26 -169 8 -344 19 -390 24 -45 6 -123 10 -174
10 -83 0 -95 2 -120 24 l-28 24 0 139 c0 1073 27 4516 36 4550 20 75 49 88
279 118 63 8 142 20 175 25 86 14 108 17 230 30 61 7 132 16 158 21 26 5 74 9
105 10 31 0 91 6 132 14 41 7 124 13 183 14 l108 1 48 -49z m6755 13 c13 -33
7 -336 -6 -332 -10 4 -14 50 -16 176 -2 157 4 203 22 156z m-4277 -296 c-1
-40 -3 -8 -3 72 0 80 2 112 3 73 2 -40 2 -106 0 -145z m-2109 -252 l3 -137
-23 3 c-22 3 -23 7 -26 127 -2 84 1 128 9 137 27 32 34 7 37 -130z m102 22 c0
-39 -4 -68 -10 -68 -6 0 -10 34 -10 83 0 56 3 77 10 67 5 -8 10 -45 10 -82z
m2007 -160 c-1 -40 -3 -8 -3 72 0 80 2 112 3 73 2 -40 2 -106 0 -145z m-2008
-115 c-2 -128 -16 -153 -18 -30 -1 65 3 107 9 107 6 0 10 -32 9 -77z m-101
-109 c3 -137 -9 -193 -34 -160 -10 15 -14 53 -14 146 0 130 3 143 30 138 12
-3 15 -24 18 -124z m-99 -226 c13 -15 39 -30 57 -34 44 -8 44 -2 44 -407 l0
-358 -35 -36 c-67 -69 -63 28 -70 -1538 -4 -781 -10 -1458 -14 -1505 l-6 -85
-75 3 c-96 5 -103 13 -58 60 93 97 89 29 93 1352 4 986 20 2627 27 2740 1 19
4 -10 7 -65 5 -87 9 -104 30 -127z m-128 -519 c-7 -17 -10 39 -10 178 -1 111
2 210 7 220 4 10 8 -70 10 -178 1 -109 -2 -207 -7 -220z m6624 -1 c7 -30 2
-3225 -5 -3232 -12 -11 -48 6 -57 27 -18 40 -1 3206 17 3217 24 16 39 11 45
-12z m-6628 -255 c-2 -27 -3 -5 -3 47 0 52 1 74 3 48 2 -27 2 -69 0 -95z
m2363 -1648 c0 -1437 -2 -1695 -14 -1695 -7 0 -16 10 -18 23 -6 32 1 3317 7
3345 22 97 25 -94 25 -1673z m-2063 58 c-1 -59 -3 -13 -3 102 0 116 2 164 3
108 2 -56 2 -151 0 -210z m1840 -185 c-1 -46 -3 -9 -3 82 0 91 2 128 3 83 2
-46 2 -120 0 -165z m6866 155 c7 -14 -5 -93 -14 -93 -13 0 -68 62 -69 77 0 19
73 33 83 16z m-96 -225 c-2 -18 -4 -6 -4 27 0 33 2 48 4 33 2 -15 2 -42 0 -60z
m93 -118 c0 -33 -4 -50 -12 -51 -7 -1 -23 -3 -35 -4 -31 -3 -30 19 3 67 35 50
44 48 44 -12z m-8803 -677 c-1 -54 -3 -10 -3 97 0 107 2 151 3 98 2 -54 2
-142 0 -195z m8673 7 c7 -78 24 -100 77 -100 64 0 67 -11 60 -231 l-5 -187
-61 -129 c-34 -70 -66 -135 -71 -143 -5 -8 -19 -33 -30 -55 -43 -79 -76 -100
-53 -33 10 29 15 107 18 272 7 371 16 650 22 659 16 26 38 -1 43 -53z m-6733
-327 c-2 -16 -4 -5 -4 22 0 28 2 40 4 28 2 -13 2 -35 0 -50z m-1812 -203 c15
-30 15 -30 -10 -30 -21 0 -25 5 -25 30 0 17 4 30 10 30 5 0 16 -13 25 -30z
m-1320 -25 c6 -2 -13 -4 -42 -4 -28 -1 -54 3 -57 8 -5 8 74 5 99 -4z m1785
-125 c52 -5 156 -12 230 -14 74 -3 146 -8 160 -11 14 -3 77 -8 140 -10 63 -2
178 -9 255 -15 198 -15 445 -31 550 -37 103 -5 135 -10 135 -22 0 -15 -93 -20
-195 -10 -55 5 -181 14 -280 19 -360 17 -556 30 -637 39 -46 5 -121 10 -168
10 -47 0 -125 5 -175 11 -49 5 -127 10 -172 10 -89 0 -113 5 -113 25 0 24 74
25 270 5z m1866 -122 c4 -5 -64 -8 -152 -8 -87 0 -153 4 -146 9 16 10 288 9
298 -1z m394 -107 c96 -5 236 -14 310 -20 226 -18 471 -31 592 -31 63 0 139
-4 169 -10 49 -8 171 -16 684 -40 239 -11 554 -30 695 -40 69 -6 220 -15 335
-21 116 -6 280 -15 365 -20 147 -10 314 -19 623 -35 107 -5 140 -10 144 -22 3
-8 0 -18 -7 -22 -18 -11 -505 -4 -610 9 -47 6 -130 11 -185 11 -55 0 -162 7
-239 15 -76 8 -142 13 -145 10 -4 -2 -68 0 -142 6 -74 5 -219 13 -324 19 -104
5 -289 14 -410 20 -121 6 -244 15 -274 20 -30 6 -116 10 -190 10 -74 0 -183 4
-241 10 -174 16 -548 38 -999 59 -292 14 -345 22 -377 56 -32 35 -31 38 14 31
20 -3 116 -10 212 -15z m5588 -109 c22 -15 -28 -31 -113 -36 -44 -2 -123 -9
-175 -15 -62 -7 -98 -7 -104 -1 -22 22 15 31 140 36 104 3 188 12 234 23 3 0
11 -3 18 -7z m-498 -51 c0 -15 -120 -31 -231 -31 -57 0 -120 -5 -139 -10 -19
-6 -89 -12 -155 -15 -66 -3 -147 -9 -180 -15 -33 -5 -97 -10 -142 -10 -45 0
-116 -5 -158 -11 -83 -13 -92 -10 -76 19 9 18 25 21 128 26 65 3 181 11 258
16 77 6 190 13 250 16 61 3 135 9 165 13 78 11 280 13 280 2z"/>
</g>
</svg>
